<svg xmlns="http://www.w3.org/2000/svg" version="1.1" xmlns:xlink="http://www.w3.org/1999/xlink" xmlns:svgjs="http://svgjs.dev/svgjs" width="1000" height="803" viewBox="0 0 1000 803"><g transform="matrix(1,0,0,1,0,0.2655284571491734)"><svg viewBox="0 0 448 360" data-background-color="#ffffff" preserveAspectRatio="xMidYMid meet" height="803" width="1000" xmlns="http://www.w3.org/2000/svg" xmlns:xlink="http://www.w3.org/1999/xlink"><g id="tight-bounds" transform="matrix(1,0,0,1,0,-0.11904140046539169)"><svg viewBox="0 0 448 360" height="360" width="448"><g><svg></svg></g><g><svg viewBox="0 0 448 360" height="360" width="448"><g><path transform="translate(36.9151,-7.08178) scale(0.00624,0.00624)" d="M25167 8301c221 0 400 179 400 400 0 221-179 400-400 400h-3824l-2753 2753c-156 156-409 156-566 0-156-156-156-409 0-566l2188-2188h-6475c-1847 0-3071 431-3819 1301-760 885-1068 2254-1068 4110 0 11 0 22-1 33l34 5884 2356-2356c156-156 409-156 566 0 156 156 156 409 0 566l-2915 2915c33 5746 31 11443-2 17189 4087 4041 8117 8068 12157 12154h4070c221 0 400 179 400 400 0 221-179 400-400 400h-3279l4160 4208 1-1c1313 1313 2498 2062 3660 2151 1146 87 2316-474 3622-1779l4579-4579h-3323c-221 0-400-179-400-400 0-221 179-400 400-400h4123l2666-2666c156-156 409-156 566 0 156 156 156 409 0 566l-2101 2101h6475c1847 0 3071-431 3819-1301 760-885 1068-2254 1068-4110h2l-34-5917-2568 2568c-156 156-409 156-566 0-156-156-156-409 0-566l3127-3127c-33-5746-31-11443 2-17189-4087-4041-8117-8068-12157-12154h-4193c-221 0-400-179-400-400 0-221 179-400 400-400h3402l-4141-4189c-7-6-13-12-20-18-1313-1313-2498-2062-3660-2151-1146-87-2316 474-3622 1779l-4579 4579h3024zM13737 8301h7275l5144-5144c1483-1483 2856-2116 4247-2010 1374 104 2719 934 4167 2382 8 8 15 15 22 23l4695 4749h6977c2096 0 3515 524 4425 1583 898 1045 1261 2582 1261 4629 0 13-1 25-2 37l-36 6373 4559 4508 1-1c1448 1448 2278 2792 2382 4167 106 1391-528 2764-2010 4247l-4934 4934 38 6710h2c0 2047-364 3584-1261 4629-910 1059-2329 1583-4425 1583h-7275l-5144 5144c-1483 1483-2856 2116-4247 2010-1374-104-2719-934-4167-2382l1-1-4718-4772h-6977c-2096 0-3515-524-4425-1583-898-1045-1261-2582-1261-4629h2l37-6410-4537-4485c-8-7-16-14-23-22-1448-1448-2278-2792-2382-4167-106-1391 528-2764 2010-4247l4934-4934-38-6672c-1-12-2-25-2-37 0-2047 364-3584 1261-4629 910-1059 2329-1583 4425-1583zM8141 30000l-44-7653-4374 4374c-1305 1305-1866 2476-1779 3622 88 1162 838 2348 2151 3660 6 6 13 13 18 20l3983 3937 45-7961zM8882 39860l-32 5627h2c0 1857 308 3226 1068 4110 748 871 1972 1301 3819 1301h6186l-5380-5442-5662-5597zM46264 9101h-6186l5380 5442 5662 5597 32-5594c-1-11-1-22-1-33 0-1857-308-3226-1068-4110-748-871-1972-1301-3819-1301zM51906 22039l-45 7961 44 7653 4374-4374c1305-1305 1866-2476 1779-3622-88-1163-838-2348-2151-3660l1-1-4002-3956z" fill="#77d4fc" fill-rule="nonzero" stroke="none" stroke-width="1" stroke-linecap="butt" stroke-linejoin="miter" stroke-miterlimit="10" stroke-dasharray="" stroke-dashoffset="0" font-family="none" font-weight="none" font-size="none" text-anchor="none" style="mix-blend-mode: normal" data-fill-palette-color="tertiary"></path></g><g transform="matrix(1,0,0,1,112,106.9031087508823)"><svg viewBox="0 0 224 146.1937824982354" height="146.1937824982354" width="224"><g><svg viewBox="0 0 225.11999999999998 146.92475141072657" height="146.1937824982354" width="224"><g><rect width="225.11999999999998" height="4.20288878330251" x="0" y="75.41046404227212" fill="#77d4fc" opacity="1" stroke-width="0" stroke="transparent" fill-opacity="1" class="rect-o$-0" data-fill-palette-color="primary" rx="1%" id="o$-0" data-palette-color="#77d4fc"></rect></g><g><rect width="225.11999999999998" height="4.20288878330251" x="0" y="85.11451615450461" fill="#77d4fc" opacity="1" stroke-width="0" stroke="transparent" fill-opacity="1" class="rect-o$-1" data-fill-palette-color="primary" rx="1%" id="o$-1" data-palette-color="#77d4fc"></rect></g><g transform="matrix(1,0,0,1,0.5599999999999881,100.3197315956671)"><svg viewBox="0 0 224 46.60501981505944" height="46.60501981505944" width="224"><g id="textblocktransform"><svg viewBox="0 0 224 46.60501981505944" height="46.60501981505944" width="224" id="textblock"><g><svg viewBox="0 0 224 46.60501981505944" height="46.60501981505944" width="224"><g transform="matrix(1,0,0,1,0,0)"><svg width="224" viewBox="1.5 -36.1 227.08 47.25" height="46.60501981505944" data-palette-color="#77d4fc"><path d="M13.25-34.3L13.25-34.3Q15-34.3 16.6-33.98 18.2-33.65 19.53-33.23 20.85-32.8 21.78-32.35 22.7-31.9 23.05-31.65L23.05-31.65 20.6-27.35 19.95-27.7Q19.3-28.05 18.25-28.5 17.2-28.95 15.95-29.3 14.7-29.65 13.55-29.65L13.55-29.65Q11.75-29.65 10.43-28.8 9.1-27.95 9.1-26.15L9.1-26.15Q9.1-23.9 10.55-22.48 12-21.05 15.1-19.85L15.1-19.85Q17.1-19.05 18.68-18.18 20.25-17.3 21.35-16.15 22.45-15 23.03-13.5 23.6-12 23.6-9.9L23.6-9.9Q23.6-8 22.88-6.15 22.15-4.3 20.73-2.88 19.3-1.45 17.2-0.58 15.1 0.3 12.35 0.3L12.35 0.3Q10.4 0.3 8.65-0.1 6.9-0.5 5.48-1.03 4.05-1.55 3.03-2.1 2-2.65 1.5-2.95L1.5-2.95 3.6-7.55 4.5-7.05Q5.4-6.55 6.7-5.95 8-5.35 9.45-4.85 10.9-4.35 11.95-4.35L11.95-4.35Q14.6-4.35 15.9-5.65 17.2-6.95 17.2-9.3L17.2-9.3Q17.2-10.4 16.85-11.23 16.5-12.05 15.85-12.65 15.2-13.25 14.28-13.73 13.35-14.2 12.2-14.65L12.2-14.65Q9.95-15.6 8.18-16.55 6.4-17.5 5.15-18.73 3.9-19.95 3.25-21.53 2.6-23.1 2.6-25.3L2.6-25.3Q2.6-27.15 3.4-28.78 4.2-30.4 5.6-31.63 7-32.85 8.95-33.58 10.9-34.3 13.25-34.3ZM34.75 10.05L29.05 11.05 29.05-12.6Q29.05-15.6 28.65-17.63 28.25-19.65 27.8-20.9L27.8-20.9Q27.25-22.35 26.6-23.25L26.6-23.25 31.1-25.05Q31.7-24.45 32.2-23.55L32.2-23.55Q32.6-22.8 33-21.73 33.4-20.65 33.6-19.2L33.6-19.2Q34.45-22.2 36.3-23.75 38.15-25.3 41.45-25.3L41.45-25.3Q43.8-25.3 45.52-24.43 47.25-23.55 48.37-21.93 49.5-20.3 50.05-18 50.6-15.7 50.6-12.9L50.6-12.9Q50.6-10.05 49.75-7.63 48.9-5.2 47.32-3.45 45.75-1.7 43.55-0.7 41.35 0.3 38.65 0.3L38.65 0.3Q37.7 0.3 36.72 0.2 35.75 0.1 34.75 0L34.75 0 34.75 10.05ZM40.5-21.3Q39.25-21.3 38.2-20.45 37.15-19.6 36.37-18.2 35.6-16.8 35.17-15.05 34.75-13.3 34.75-11.45L34.75-11.45 34.75-4.25Q35.25-4.1 36.25-3.9 37.25-3.7 38-3.7L38-3.7Q39.9-3.7 41.15-4.35 42.4-5 43.15-6.15 43.9-7.3 44.2-8.9 44.5-10.5 44.5-12.4L44.5-12.4Q44.5-14.15 44.4-15.75 44.3-17.35 43.87-18.6 43.45-19.85 42.65-20.58 41.85-21.3 40.5-21.3L40.5-21.3ZM65.55-25.5Q71.3-25.5 73.9-22.1 76.5-18.7 76.5-12.75L76.5-12.75Q76.5-9.95 75.8-7.53 75.09-5.1 73.67-3.33 72.25-1.55 70.09-0.53 67.95 0.5 65.09 0.5L65.09 0.5Q62.25 0.5 60.17-0.38 58.1-1.25 56.75-2.9 55.4-4.55 54.77-6.9 54.15-9.25 54.15-12.2L54.15-12.2Q54.15-15.05 54.85-17.48 55.55-19.9 56.97-21.68 58.4-23.45 60.55-24.48 62.7-25.5 65.55-25.5L65.55-25.5ZM65.05-21.3Q63.6-21.3 62.67-20.65 61.75-20 61.22-18.82 60.7-17.65 60.5-16.07 60.3-14.5 60.3-12.7L60.3-12.7Q60.3-10.85 60.52-9.2 60.75-7.55 61.35-6.33 61.95-5.1 62.97-4.4 64-3.7 65.59-3.7L65.59-3.7Q67.05-3.7 67.97-4.35 68.9-5 69.42-6.18 69.95-7.35 70.15-8.9 70.34-10.45 70.34-12.25L70.34-12.25Q70.34-14.1 70.12-15.75 69.9-17.4 69.3-18.65 68.7-19.9 67.67-20.6 66.65-21.3 65.05-21.3L65.05-21.3ZM78.74-20.85L78.74-24.9 83.24-24.9 84.24-30.75 88.94-31.8 88.94-24.9 95.09-24.9 94.39-20.85 88.94-20.85 88.94-6.05Q88.94-4.75 89.64-4.38 90.34-4 91.19-4L91.19-4Q91.89-4 92.59-4.1 93.29-4.2 93.84-4.35L93.84-4.35Q94.49-4.5 95.09-4.7L95.09-4.7 96.04-0.95 95.59-0.8Q95.14-0.6 94.27-0.38 93.39-0.15 92.22 0.03 91.04 0.2 89.64 0.2L89.64 0.2Q88.24 0.2 87.07-0.1 85.89-0.4 85.04-1.07 84.19-1.75 83.72-2.8 83.24-3.85 83.24-5.4L83.24-5.4 83.24-20.85 78.74-20.85ZM104.79 0.2Q102.14 0.2 100.74-1.38 99.34-2.95 99.34-5.45L99.34-5.45 99.34-24.9 105.04-24.9 105.04-5.95Q105.04-4.8 105.39-4.4 105.74-4 106.44-4L106.44-4Q106.64-4 106.87-4 107.09-4 107.29-4.05L107.29-4.05Q107.49-4.05 107.74-4.1L107.74-4.1 108.34-0.5Q107.99-0.3 107.44-0.15L107.44-0.15Q106.99 0 106.32 0.1 105.64 0.2 104.79 0.2L104.79 0.2ZM102.29-36Q103.89-36 104.74-35.05 105.59-34.1 105.59-32.6L105.59-32.6Q105.59-31.1 104.72-30.1 103.84-29.1 102.14-29.1L102.14-29.1Q100.54-29.1 99.67-30.08 98.79-31.05 98.79-32.45L98.79-32.45Q98.79-34 99.67-35 100.54-36 102.29-36L102.29-36ZM127.74-34L125.29-30.75Q125.14-30.9 124.36-31.3 123.59-31.7 122.89-31.7L122.89-31.7Q122.44-31.7 121.79-31.58 121.14-31.45 120.54-31.03 119.94-30.6 119.51-29.8 119.09-29 119.09-27.7L119.09-27.7Q119.09-27.15 119.16-26.45 119.24-25.75 119.49-24.9L119.49-24.9 125.69-24.9 124.99-20.85 119.79-20.85 119.79-1.25Q119.79 1.75 119.01 3.78 118.24 5.8 116.99 7.18 115.74 8.55 114.21 9.47 112.69 10.4 111.19 11.15L111.19 11.15 108.89 7.35Q110.74 6.4 111.79 5.33 112.84 4.25 113.36 3.18 113.89 2.1 113.99 1.1 114.09 0.1 114.09-0.7L114.09-0.7 114.09-20.85 109.59-20.85 109.59-24.9 113.94-24.9Q113.74-25.65 113.66-26.45 113.59-27.25 113.59-27.95L113.59-27.95Q113.59-29.95 114.31-31.5 115.04-33.05 116.26-34.05 117.49-35.05 119.11-35.58 120.74-36.1 122.49-36.1L122.49-36.1Q124.44-36.1 125.69-35.48 126.94-34.85 127.74-34L127.74-34ZM148.84-24.9L148.59-10.1Q148.59-8.6 148.81-7.35 149.04-6.1 149.31-4.88 149.59-3.65 149.84-2.4 150.09-1.15 150.09 0.35L150.09 0.35Q150.09 5.65 147.39 8.25 144.69 10.85 140.09 10.85L140.09 10.85Q138.59 10.85 137.09 10.58 135.59 10.3 134.31 9.95 133.04 9.6 132.14 9.25 131.24 8.9 130.94 8.75L130.94 8.75 132.34 4.4Q133.04 4.7 133.91 5.03 134.79 5.35 135.71 5.65 136.64 5.95 137.64 6.15 138.64 6.35 139.59 6.35L139.59 6.35Q142.39 6.35 143.64 4.67 144.89 3 144.89 0.35L144.89 0.35Q144.89-2.05 143.89-4.6L143.89-4.6Q142.49-1.95 140.16-0.83 137.84 0.3 135.29 0.3L135.29 0.3Q131.34 0.3 129.66-2 127.99-4.3 127.99-8.3L127.99-8.3 127.99-24.9 133.69-24.9 133.69-8.45Q133.69-6.35 134.44-5.15 135.19-3.95 136.99-3.95L136.99-3.95Q137.94-3.95 139.01-4.5 140.09-5.05 140.96-6.03 141.84-7 142.41-8.38 142.99-9.75 142.99-11.35L142.99-11.35 142.99-24.9 148.84-24.9ZM168.53-25.35L166.58-29.3Q167.58-29.75 168.86-30.25 170.13-30.75 171.56-31.15 172.98-31.55 174.48-31.83 175.98-32.1 177.48-32.1L177.48-32.1Q179.23-32.1 180.83-31.68 182.43-31.25 183.66-30.25 184.88-29.25 185.61-27.58 186.33-25.9 186.33-23.45L186.33-23.45Q186.33-20.2 184.18-16.98 182.03-13.75 178.23-9.6L178.23-9.6 173.63-4.55 187.18-4.55 187.18 0 166.38 0 166.43-4.7Q166.83-5.15 167.81-6.18 168.78-7.2 169.86-8.33 170.93-9.45 171.91-10.45 172.88-11.45 173.28-11.9L173.28-11.9Q175.23-14.15 176.56-15.78 177.88-17.4 178.68-18.7 179.48-20 179.81-21.13 180.13-22.25 180.13-23.55L180.13-23.55Q180.13-25.45 179.06-26.6 177.98-27.75 176.28-27.75L176.28-27.75Q174.33-27.75 172.61-27.05 170.88-26.35 168.53-25.35L168.53-25.35ZM196.03-7Q197.78-7 198.7-5.95 199.63-4.9 199.63-3.25L199.63-3.25Q199.63-1.65 198.68-0.55 197.73 0.55 195.88 0.55L195.88 0.55Q194.13 0.55 193.18-0.55 192.23-1.65 192.23-3.15L192.23-3.15Q192.23-4.75 193.18-5.88 194.13-7 196.03-7L196.03-7ZM217.08-32.1Q220.18-32.1 222.35-31.05 224.53-30 225.93-28 227.33-26 227.95-23.05 228.58-20.1 228.58-16.35L228.58-16.35Q228.58-12.6 227.9-9.55 227.23-6.5 225.75-4.3 224.28-2.1 221.98-0.9 219.68 0.3 216.43 0.3L216.43 0.3Q213.33 0.3 211.15-0.75 208.98-1.8 207.58-3.83 206.18-5.85 205.55-8.8 204.93-11.75 204.93-15.55L204.93-15.55Q204.93-19.3 205.6-22.35 206.28-25.4 207.75-27.58 209.23-29.75 211.53-30.93 213.83-32.1 217.08-32.1L217.08-32.1ZM216.43-27.75Q214.88-27.75 213.85-26.93 212.83-26.1 212.23-24.58 211.63-23.05 211.38-20.9 211.13-18.75 211.13-16.1L211.13-16.1Q211.13-13.6 211.35-11.4 211.58-9.2 212.2-7.58 212.83-5.95 213.98-5 215.13-4.05 217.03-4.05L217.03-4.05Q218.58-4.05 219.6-4.9 220.63-5.75 221.23-7.28 221.83-8.8 222.08-10.95 222.33-13.1 222.33-15.75L222.33-15.75Q222.33-18.25 222.13-20.43 221.93-22.6 221.28-24.23 220.63-25.85 219.48-26.8 218.33-27.75 216.43-27.75L216.43-27.75Z" opacity="1" transform="matrix(1,0,0,1,0,0)" fill="#77d4fc" class="undefined-text-0" data-fill-palette-color="primary" id="text-0"></path></svg></g></svg></g></svg></g></svg></g><g transform="matrix(1,0,0,1,76.00629086105438,0)"><svg viewBox="0 0 73.10741827789121 64.40813738441216" height="64.40813738441216" width="73.10741827789121"><g><svg xmlns="http://www.w3.org/2000/svg" xmlns:xlink="http://www.w3.org/1999/xlink" version="1.1" x="0" y="0" viewBox="6.3 11.5 87.4 77" style="enable-background:new 0 0 100 100;" xml:space="preserve" height="64.40813738441216" width="73.10741827789121" class="icon-icon-0" data-fill-palette-color="accent" id="icon-0"><path d="M72.3 12.3L72.3 12.3 72.3 12.3l-0.4-0.8H28.2L6.3 50l21.8 38.5h43.7L93.7 50 72.3 12.3zM33.3 25.3L9.9 47.7l18.6-32.8L33.3 25.3zM70.7 14.8l6.4 35.7L36.9 25.8 70.7 14.8zM35.5 27.3l41 25.2-41 23.3V27.3zM77 54.5l-7.2 30.8-32.6-8.1L77 54.5zM33.5 75L9.9 50.5l23.6-22.7V75zM33.2 77.6l-4.6 7.7L11.5 55.1 33.2 77.6zM35 78.6l31.4 7.9H30.2L35 78.6zM79.3 53.3l11.6-2.5L72.1 84 79.3 53.3zM90.7 48.9l-11.4 2.5-5.9-33.1L90.7 48.9zM35 24.3l-5-10.8h38.2L35 24.3z" fill="#4b91f1" data-fill-palette-color="accent"></path></svg></g></svg></g><g></g></svg></g></svg></g></svg></g><defs></defs></svg><rect width="448" height="360" fill="none" stroke="none" visibility="hidden"></rect></g></svg></g></svg>